<svg version="1.1" xmlns="http://www.w3.org/2000/svg" viewBox="-439.5 246.2 78 69.1">
	<path d="M-436.7,246.2c-3.3-0.1-3.8,4.6-0.6,5.3l5.9,1.3c3.1,14.9,6.5,29.7,9.8,44.5c0.3,1.2,1.4,2.1,2.6,2.1h46.7
		c3.6,0.1,3.6-5.4,0-5.3H-417l-1.2-5.3h48.1c1.2,0,2.3-0.9,2.6-2.1l5.9-26.6c0.4-1.7-0.9-3.2-2.6-3.2c-20.3,0-40.7,0-61,0
		l-1.4-6.9c-0.2-1-1-1.8-2-2l-7.6-1.7C-436.4,246.2-436.6,246.2-436.7,246.2L-436.7,246.2z M-408,301.1c-3.9,0-7.1,3.2-7.1,7.1
		s3.2,7.1,7.1,7.1s7.1-3.2,7.1-7.1S-404.1,301.1-408,301.1z M-383.2,301.1c-3.9,0-7.1,3.2-7.1,7.1s3.2,7.1,7.1,7.1
		s7.1-3.2,7.1-7.1S-379.3,301.1-383.2,301.1z"/>
</svg>