<?xml version="1.0" encoding="utf-8"?>
<!-- Generator: Adobe Illustrator 19.0.0, SVG Export Plug-In . SVG Version: 6.00 Build 0)  -->
<svg version="1.1" baseProfile="tiny" id="customer_support" xmlns="http://www.w3.org/2000/svg" xmlns:xlink="http://www.w3.org/1999/xlink"
	 x="0px" y="0px" viewBox="8.2 19.5 161.6 146.8" xml:space="preserve">
<path id="XMLID_5_" d="M100.2,166.3l-29.9-29.1H22.7c-8,0-14.5-6.5-14.5-14.5v-47c0-8,6.5-14.5,14.5-14.5h46v5h-46
	c-5.2,0-9.5,4.3-9.5,9.5v47c0,5.2,4.3,9.5,9.5,9.5h49.7l22.8,22.2v-22.2h3.5c5.2,0,9.5-4.3,9.5-9.5v-28h5v28c0,7.5-5.7,13.7-13,14.4
	V166.3z"/>
<path id="XMLID_7_" d="M77.8,124.6V95.4c-7.3-0.8-13-6.9-13-14.4V34c0-8,6.5-14.5,14.5-14.5h76
	c8,0,14.5,6.5,14.5,14.5v47c0,8-6.5,14.5-14.5,14.5h-47.6L77.8,124.6z M79.3,24.5c-5.2,0-9.5,4.3-9.5,9.5v47c0,5.2,4.3,9.5,9.5,9.5
	h3.5v22.2l22.8-22.2h49.7c5.2,0,9.5-4.3,9.5-9.5V34c0-5.2-4.3-9.5-9.5-9.5H79.3z"/>
<path id="XMLID_11_" d="M42.8,106.1c-2.6,0-4.8-2.2-4.8-4.8c0-2.6,2.2-4.8,4.8-4.8s4.8,2.2,4.8,4.8
	S45.4,106.1,42.8,106.1z M42.8,99.5c-1,0-1.8,0.8-1.8,1.8s0.8,1.8,1.8,1.8s1.8-0.8,1.8-1.8S43.7,99.5,42.8,99.5z"/>
<path id="XMLID_12_" d="M54.8,106.1c-2.6,0-4.8-2.2-4.8-4.8c0-2.6,2.2-4.8,4.8-4.8s4.8,2.2,4.8,4.8
	S57.4,106.1,54.8,106.1z M54.8,99.5c-1,0-1.8,0.8-1.8,1.8s0.8,1.8,1.8,1.8s1.8-0.8,1.8-1.8S55.7,99.5,54.8,99.5z"/>
<path id="XMLID_9_" d="M65.8,106.1c-2.6,0-4.8-2.2-4.8-4.8c0-2.6,2.2-4.8,4.8-4.8s4.8,2.2,4.8,4.8
	C70.6,103.9,68.4,106.1,65.8,106.1z M65.8,99.5c-1,0-1.8,0.8-1.8,1.8s0.8,1.8,1.8,1.8s1.8-0.8,1.8-1.8
	C67.6,100.3,66.7,99.5,65.8,99.5z"/>
<g id="XMLID_1_123">
	<path id="XMLID_2_" d="M113.6,61.3c0-1.6,0.2-2.9,0.5-3.8c0.4-0.9,1-1.7,1.8-2.4s1.4-1.3,1.9-1.9s0.6-1.2,0.6-1.9
		c0-1.7-0.7-2.5-2.2-2.5c-0.7,0-1.2,0.2-1.6,0.7s-0.6,1.1-0.6,2h-5.6c0-2.2,0.7-3.9,2.1-5.2c1.4-1.2,3.3-1.9,5.8-1.9
		s4.4,0.6,5.7,1.7c1.4,1.1,2,2.8,2,4.9c0,0.9-0.2,1.8-0.5,2.5c-0.4,0.8-1,1.5-1.8,2.3l-1.9,1.8c-0.5,0.5-0.9,1.1-1.1,1.6
		s-0.3,1.2-0.3,2.1C118.4,61.3,113.6,61.3,113.6,61.3z M112.9,66.3c0-0.8,0.3-1.5,0.9-2s1.3-0.8,2.2-0.8s1.6,0.3,2.2,0.8
		s0.9,1.2,0.9,2s-0.3,1.5-0.9,2s-1.3,0.8-2.2,0.8s-1.6-0.3-2.2-0.8S112.9,67.1,112.9,66.3z"/>
</g>
</svg>
