<svg xmlns="http://www.w3.org/2000/svg" viewBox="0 0 62.192 61.523">
  <g id="Group_259" data-name="Group 259" transform="translate(2.893 2.049)">
    <path id="Path_23" data-name="Path 23" d="M38.035,19.73a1.344,1.344,0,0,0-1.887,0L21.79,33.708a1.354,1.354,0,0,0,0,1.9,1.333,1.333,0,0,0,1.887,0L38.035,21.617a1.333,1.333,0,0,0,0-1.887Z" transform="translate(-0.929 -0.533)"/>
    <path id="Path_24" data-name="Path 24" d="M6.117,40.854l36.1-36.131s6.307-7.3,12.4-1.446c0,0,8.276,6.543,1.21,13.107L17.88,52.823,1.44,57.561Z" transform="translate(-1.44 -1.002)" fill="none" stroke-miterlimit="10" stroke-width="4"/>
    <path id="Path_25" data-name="Path 25" d="M0,0,5.187,5.236,6.916,6.982l4.94,4.987" transform="translate(4.625 39.852)" fill="none" stroke-width="4"/>
    <line id="Line_57" data-name="Line 57" x1="12.399" y1="12.82" transform="translate(40.777 3.546)" fill="none" stroke-miterlimit="10" stroke-width="4"/>
  </g>
</svg>
