<svg id="Refine" xmlns="http://www.w3.org/2000/svg" viewBox="0 0 79.012 88.38">
  <g id="Group_257" data-name="Group 257">
    <path id="Path_103" data-name="Path 103" d="M96.423,0H22.189A2.481,2.481,0,0,0,19.8,2.484V17.671a.887.887,0,0,0,.024.237c0,.024.024.071.024.095,0,.047.024.071.024.118s.024.071.024.118c0,.024.024.071.024.095.024.047.024.095.047.118,0,.024.024.047.024.095.024.047.024.071.047.118.024.024.024.047.047.095s.047.071.047.095c.024.024.024.071.047.095s.047.071.071.095.047.071.071.095a.327.327,0,0,1,.071.095c.024.024.047.024.047.047L47.478,48.756V86.015a2.383,2.383,0,0,0,1.348,2.153,2.342,2.342,0,0,0,.994.213,2.291,2.291,0,0,0,1.538-.568L70.33,71.655a2.291,2.291,0,0,0,.8-1.8v-21.1l27.016-29.5.047-.047a2820.949,2820.949,0,0,1,.142-.189.327.327,0,0,1,.071-.095.179.179,0,0,0,.047-.095c.024-.024.047-.071.071-.095s.024-.047.047-.095.047-.071.047-.118c0-.024.024-.047.024-.095.024-.047.024-.071.047-.118,0-.024.024-.071.024-.095,0-.047.024-.071.024-.118s.024-.071.024-.118c0-.024.024-.071.024-.095,0-.071.024-.142.024-.237V2.46A2.46,2.46,0,0,0,96.423,0ZM67.042,46.272a2.263,2.263,0,0,0-.639,1.561V68.745L52.209,80.881V47.833a2.263,2.263,0,0,0-.639-1.561L27.559,20.108H91.053Zm27.039-30.9H24.531V4.731h69.55Z" transform="translate(-19.8)"/>
  </g>
</svg>
