<svg version="1.1" xmlns="http://www.w3.org/2000/svg" viewBox="-464.3 267.1 29.4 29.4">
	<path d="M-464.3,281.8c0-3,0-5.9,0-8.9c0-2.9,1.9-5.2,4.8-5.7c0.4-0.1,0.7-0.1,1.1-0.1
		c5.9,0,11.7,0,17.6,0c2.8,0,5,1.7,5.7,4.3c0.1,0.4,0.2,0.9,0.2,1.3c0,6,0,12,0,18.1c0,3.1-2.5,5.6-5.6,5.6c-6,0-12.1,0-18.1,0
		c-3.1,0-5.6-2.5-5.6-5.6C-464.3,287.8-464.3,284.8-464.3,281.8z M-442.1,278.8c1.2,3.8,0.4,7.1-2.8,9.5c-2.6,2-5.6,2.2-8.5,0.6
		c-3.9-2.3-4.9-5.8-3.7-10h-4.3v0.3c0,3.9,0,7.7,0,11.6c0,1.7,1.2,2.9,2.9,2.9c5.9,0,11.8,0,17.8,0c0.2,0,0.4,0,0.7,0
		c1.4-0.3,2.3-1.4,2.3-2.9c0-3.8,0-7.7,0-11.5c0-0.1,0-0.2,0-0.3H-442.1z M-449.6,276.6c-2.9,0-5.2,2.3-5.2,5.2
		c0,2.8,2.3,5.1,5.1,5.2c2.8,0,5.2-2.3,5.2-5.1C-444.5,279-446.8,276.7-449.6,276.6z M-443.3,270.5v4.9h4.9v-4.9H-443.3z"/>
</svg>