<?xml version="1.0" encoding="utf-8"?>
<!-- Generator: Adobe Illustrator 19.0.0, SVG Export Plug-In . SVG Version: 6.00 Build 0)  -->
<svg version="1.1" id="Layer_1" xmlns="http://www.w3.org/2000/svg" xmlns:xlink="http://www.w3.org/1999/xlink" x="0px" y="0px"
	 viewBox="512.7 -554.3 3006.3 1668.2" style="enable-background:new 512.7 -554.3 3006.3 1668.2;" xml:space="preserve">
<style type="text/css">
	.st0{fill:#FFB3C7;}
	.st1{fill:#0A0B09;}
</style>
<g>
	<path class="st0" d="M805.6-552.3H3226c158.9,0,287.7,128.8,287.7,287.7v1089c0,158.9-128.8,287.7-287.7,287.7H805.6
		c-158.9,0-287.7-128.8-287.7-287.7v-1089C517.9-423.6,646.7-552.3,805.6-552.3z"/>
	<path class="st1" d="M3233.7,422.7c-39.3,0.1-71.1,32.2-71,71.5c0,0,0,0.1,0,0.1c-0.2,39.3,31.5,71.4,70.8,71.6c0,0,0.1,0,0.1,0
		c39.1,0,71-32.1,71-71.6c0.2-39.3-31.5-71.4-70.8-71.6C3233.8,422.7,3233.7,422.7,3233.7,422.7z M3000.2,367.4
		c0-54.2-45.9-98.1-102.5-98.1s-102.5,43.9-102.5,98.1s45.9,98,102.5,98C2954.4,465.4,3000.2,421.5,3000.2,367.4L3000.2,367.4z
		 M3000.6,176.8h113v381.1h-113v-24.4c-33,22.7-72.1,34.9-112.1,34.9c-110,0-199.3-90-199.3-201.1s89.2-201.1,199.3-201.1
		c41.6,0,80.2,12.8,112.1,34.9V176.8z M2095.7,226.4v-49.6h-115.8v381.1h116V379.9c0-60,64.4-92.3,109.2-92.3h1.3V176.8
		C2160.5,176.8,2118.4,196.7,2095.7,226.4z M1807.3,367.4c0-54.2-45.9-98.1-102.5-98.1c-56.6,0-102.5,43.9-102.5,98.1
		s45.9,98,102.5,98S1807.3,421.5,1807.3,367.4L1807.3,367.4z M1807.7,176.8h113.1v381.1h-113.1v-24.4c-32,22-70.5,34.9-112.1,34.9
		c-110,0-199.3-90-199.3-201.1s89.2-201.1,199.3-201.1c41.6,0,80.2,12.8,112.1,34.9V176.8z M2488.3,166.6
		c-45.1,0-87.9,14.1-116.5,53.1v-42.9h-112.6v381.1h114V357.6c0-57.9,38.5-86.3,84.9-86.3c49.7,0,78.3,30,78.3,85.5v201.1h112.9
		V315.6C2649.3,226.9,2579.4,166.6,2488.3,166.6L2488.3,166.6z M1331.6,557.9H1450V7h-118.4V557.9z M811.7,558h125.4V6.9H811.8
		L811.7,558z M1250.2,6.9c0,119.3-46.1,230.3-128.2,312.8L1295.2,558h-154.8l-188.2-259l48.6-36.7C1081,202,1128,107.2,1127.4,6.9
		H1250H1250.2z"/>
</g>
</svg>
