<svg version="1.1" xmlns="http://www.w3.org/2000/svg" viewBox="-466 267 25.9 26.8">
	<path d="M-440.1,268.1v24.6c0,0.6-0.5,1.1-1.1,1.1h-23.7c-0.6,0-1.1-0.5-1.1-1.1v-24.6
		c0-0.6,0.5-1.1,1.1-1.1h23.7C-440.6,267-440.1,267.5-440.1,268.1z M-457.5,277.1h-4.7v13.1h4.7V277.1z M-457.2,273.6
		c0-1.5-1.2-2.6-2.6-2.6c-1.5,0-2.7,1.2-2.7,2.6s1.2,2.6,2.7,2.6C-458.4,276.3-457.2,275.1-457.2,273.6z M-443.2,290.2v-7.1
		c0-3.1-0.6-6.3-5-6.3c-1.4,0-2.5,0.6-3.2,1.2v-0.9h-4.5v13.1h4.7v-6.5c0-2,0.5-2.7,1.9-2.7c1.3,0,1.6,0.9,1.6,2.8v6.4H-443.2z"/>
</svg>