<svg version="1.1" xmlns="http://www.w3.org/2000/svg" viewBox="0 0 408.1 408.7" fill="currentColor">
	<path d="M392.7,324.7c-34-31.1-67.9-62.3-101.9-93.4c-1.9-1.8-4.4-3.4-5.3-5.7c-0.4-0.9,2.8-3.1,4.2-4.9
		c2.6-3.5,2.4-7.6-0.4-10.5c-2.8-2.8-6.9-3-10.5-0.7c-2.2,1.5-3.6,5.4-6.2,4.6c-2.5-0.7-4.4-3.7-6.5-5.6c-0.8-0.7-1.5-1.5-2.4-2.1
		c-2.2-1.5-1.9-2.6-0.1-4.4c14.4-14.3,28.8-28.7,43.1-43.1c1.5-1.5,2.8-1.8,4.9-1.3c9.9,2.3,20,2.8,30,1.1
		c26.3-4.5,45.7-18.7,58.5-42c6.7-12.2,8.7-25.4,8-39.2c-0.4-6.9,0-13.7-2.2-20.4c-3-9.1-9.1-10.8-15.8-3.9
		c-9.7,9.8-19.4,19.6-29.1,29.4c-1.1,1.1-2.2,2-4,2.1c-13.3,0.6-13.3,0.6-22.6-8.9c-0.1-0.1-0.2-0.2-0.3-0.3
		c-7.3-5.3-10-12.3-8.8-21.3c0.4-2.5,0.8-4.4,2.6-6.2c9.6-9.5,19.1-19.2,28.6-28.9c6.5-6.6,4.8-13.1-4.1-15.6
		c-4.7-1.3-9.6-2.3-14.4-3.4c-6.1,0-12.2,0-18.3,0c-1,1.5-2.6,1.1-3.9,1.3c-33,5.3-59,32.3-64.8,64.4c-1.9,10.4-1.8,20.8,0.7,31.2
		c0.6,2.6,0.1,4.3-1.8,6.3c-18,17.8-35.9,35.8-53.7,53.8c-2.1,2.1-3.1,2-5.1,0c-30.9-31.2-62-62.3-93-93.3c-1.6-1.6-2.4-3.2-2.3-5.5
		c0.2-4.9,0-9.8,0.1-14.7c0-3.9-1.5-6.8-4.9-8.9C72.5,23.6,54.4,12.7,36.4,1.9c-1.2-0.7-2.5-1.3-3.7-1.9c-1.3,0-2.7,0-4,0
		c-7,4.9-12.3,11.6-18.4,17.4c-3.7,3.5-7.4,7-10.3,11.3c0,1.3,0,2.7,0,4c1.8,0.9,2.1,3,3,4.5C13.4,54.4,23.8,71.6,34,88.9
		c2.5,4.3,5.6,6.2,10.6,6.1c5.7-0.1,12-1.8,16.9,0.6c4.7,2.3,8.1,7.5,12,11.4c27.7,27.8,55.5,55.6,83.3,83.4
		c2.1,2.1,2.4,3.1,0.1,5.4c-17.9,17.6-35.6,35.4-53.2,53.2c-2,2-3.6,2.6-6.5,2c-36-7.3-69.8,8.3-87.6,40.6c-5,9-7.6,18.8-8.8,29.1
		c-0.1,0.9,0.6,2.2-0.8,2.8c0,4,0,8,0,12c2.1,5.3,2,11,3.8,16.4c2.9,8.8,9.1,10.6,15.6,4.1c9.7-9.8,19.5-19.6,29.1-29.5
		c1.6-1.7,3.3-2,5.5-2.3c9.2-1.4,16.5,1.3,21.9,9.1c0.1,0.2,0.3,0.4,0.6,0.6c7.4,5.1,10,12,8.7,20.8c-0.4,2.5-0.8,4.4-2.6,6.2
		c-9.8,9.5-19.5,19.2-29.2,28.8c-6.7,6.7-5.1,13.1,4.1,15.8c4.6,1.3,9.2,2.4,14,2.8c31.5,2.6,56.7-8.8,74.7-34.7
		c13-18.8,16.9-39.7,11.8-62.2c-0.3-1.5-0.7-3,0.7-4.4c15.2-15.2,30.4-30.4,45.7-45.8c3.7,4,7.2,7.9,11.2,12.3
		c-1.8,1.5-3.7,2.8-5.2,4.5c-3,3.4-3.2,7.3-0.6,10.5c3.3,4.2,8.6,4.2,13-0.6c2.7-3,4-2.6,6.5,0.2c32.1,35.1,64.3,70,96.5,105
		c13.9,15,34.5,19.8,53.1,12.4c18.5-7.2,29.1-23.4,29-44.4c0-5,0.6-10-1.1-15C403.8,337.7,399.2,330.6,392.7,324.7z M72.9,83.6
		c-3.2-3.3-6.7-4.8-11.3-4.7c-4.9,0.2-10.7,1.5-14.5-0.6c-3.7-2.1-5.5-7.8-8-12c-6.4-10.7-12.7-21.4-19.2-32
		c-1.2-1.9-1.2-3.1,0.6-4.7c3.4-3.1,6.7-6.5,9.9-9.8c1.3-1.4,2.2-1.7,4-0.6C48.6,27.9,62.9,36.5,77.3,45c1.7,1,2.3,2.2,2.3,4.1
		c-0.1,4.2,0.1,8.5-0.1,12.7c-0.2,4.2,1.4,7.3,4.3,10.2c31.9,31.9,63.8,63.9,95.7,95.8c0.8,0.8,1.6,1.7,2.4,2.6
		c-0.3,0.5-0.5,0.8-0.8,1.1c-3.1,3.1-6.2,6.2-9.3,9.3c-1,1-1.5,0.5-2.2-0.2c-1.2-1.2-2.4-2.4-3.7-3.7
		C134.9,145.9,103.8,114.8,72.9,83.6z M144.7,298.1c-3.8,3.8-4.8,7.5-3.4,12.8c9,32.4-6.5,64.3-37.4,77.2
		c-9.4,3.9-19.3,5.2-29.5,4.3c-0.3-1.6,0.9-2,1.6-2.7c7-7.1,14.1-14.1,21.2-21c2.6-2.6,4-5.5,3.9-9.2c-0.1-6.2,0-12.5,0-18.7
		c0-3.5-1.2-6.4-3.7-8.9c-6.8-6.7-13.6-13.5-20.3-20.3c-2.4-2.4-5.1-3.6-8.5-3.5c-6.5,0.1-13,0.1-19.5,0c-3.5-0.1-6.1,1.2-8.5,3.6
		c-7.8,7.8-15.6,15.5-23.7,23.4c-1.2-10.4,0.2-20.3,4-29.9C32.7,275.6,65.8,258,98,267.7c5.3,1.6,9.2,0.5,13.2-3.5
		c51.1-51.3,102.2-102.4,153.5-153.5c3.9-3.9,5-7.7,3.5-13.1c-9.9-35.1,9.8-69.8,45.2-79.5c7.2-2,14.5-2.6,22-1.8
		c0.4,1.5-0.9,2-1.5,2.6c-6.9,7-13.7,14.1-20.7,21c-2.7,2.7-4,5.8-3.9,9.6c0.1,6.1,0.1,12.2,0,18.3c0,3.4,1.1,6.2,3.4,8.6
		c6.6,6.7,13.1,13.5,19.6,20.3c2.4,2.6,5.2,3.8,8.8,3.7c6.4-0.1,12.7-0.1,19.1,0c3.6,0.1,6.3-1.2,8.8-3.7
		c7.8-7.7,15.6-15.4,23.7-23.3c1.6,20.3-4.4,37.9-19,51.9c-17.7,16.9-38.8,22-62.4,15.5c-5.3-1.4-9-0.4-12.8,3.4
		C247.3,195.7,196,247,144.7,298.1z M227.9,260.1c-0.4,0.4-0.9,0.8-1.4,1.3c-0.5-0.5-0.9-0.8-1.3-1.2c-2.7-2.9-5.3-5.9-8.1-8.7
		c-1.2-1.2-1.1-2,0.1-3.1c10.4-10.3,20.8-20.7,31.2-31.2c1.1-1.1,1.9-1.5,3.2-0.2c2.7,2.7,5.6,5.3,8.5,7.8c1.2,1.1,1.5,1.8,0.2,3.1
		C249.4,238.5,238.7,249.3,227.9,260.1z M373.2,390.4c-12.4,5-26.4,1.8-35.7-8.2c-32.8-35.5-65.4-71.1-98.2-106.6
		c-1.7-1.8-1.6-2.7,0.1-4.4c10.8-10.6,21.5-21.3,32.1-32.1c1.8-1.9,2.7-1.4,4.4,0.1c35.7,32.8,71.4,65.5,107,98.3
		c6.7,6.2,10.1,14.1,10.1,23.4C393,373.6,385,385.6,373.2,390.4z"/>
	<path d="M261.3,158.5c2-3.2,1.5-7.3-1.2-9.8c-2.6-2.5-6.4-2.9-9.5-0.9c-1.3,0.8-2.5,2-3.6,3.1
		c-31.9,31.9-63.8,63.8-95.7,95.7c-1.2,1.2-2.4,2.5-3.3,4c-2.9,5.2,0.8,11.6,6.8,11.6c3.2,0.1,5.4-1.9,7.5-4
		c32.1-32.1,64.2-64.2,96.3-96.3C259.5,160.8,260.5,159.7,261.3,158.5z"/>
	<path d="M277.3,139.7c4.3,0,7.9-3.5,7.9-7.8c0-4.2-3.5-7.8-7.8-7.9c-4.4-0.1-8.2,3.7-8.1,8
		C269.4,136.2,273,139.7,277.3,139.7z"/>
	<path d="M132.1,269c-4.3,0.1-7.8,3.6-7.8,7.9c0,4.2,3.6,7.8,7.9,7.8c4.4,0,8.2-3.8,8-8.1
		C140,272.3,136.4,269,132.1,269z"/>
	<path d="M291.7,280.2c-5.3-5.3-10.1-6-13.7-2.3c-3.7,3.8-2.9,8.2,2.3,13.4c22.6,22.5,45.1,45,67.7,67.4
		c1.2,1.2,2.5,2.4,4,3.3c5.1,2.8,11.3-0.8,11.5-6.6c0.2-3.4-1.8-5.6-4-7.8C336.8,325.2,314.2,302.7,291.7,280.2z"/>
</svg>