<svg version="1.1" xmlns="http://www.w3.org/2000/svg" viewBox="0 0 383.2 383.1" fill="currentColor">
	<path d="M0,346.4c3.1-11.6,12-18.8,19.9-26.7c17.3-17.3,34.5-34.6,51.8-51.8c5.4-5.4,8.7-5.4,14.2,0
	c2.3,2.3,4.7,4.5,6.8,6.9c1.7,2,2.8,2.4,4.9,0.2c5.3-5.7,10.8-11.1,16.4-16.4c1.5-1.5,1.8-2.3,0.3-4.1c-21-23.9-33.4-51.8-37-83.3
	c-8.2-71.8,33.5-136.7,97.2-160.8c76.1-28.8,159.5,4.4,193.9,77.8c40.7,86.7-6.2,187.7-97,212.7c-52.7,14.6-100.5,3.3-142.5-31.7
	c-1.7-1.4-2.6-1.9-4.4,0c-5.4,5.7-11,11.2-16.7,16.6c-1.9,1.8-1.5,2.8,0.2,4.3c2.9,2.7,5.7,5.6,8.5,8.4c3.6,3.8,3.7,7.8,0,11.5
	c-21.5,21.5-43,43-64.5,64.5c-4.7,4.7-10.7,6.8-16.9,8.5c-3.5,0-7,0-10.5,0c-0.2-1-1.1-0.8-1.8-1C11.7,378.7,4.4,371.4,1,360.2
	c-0.2-0.7,0-1.6-1-1.8C0,354.4,0,350.4,0,346.4z M91.3,153.3c-0.1,76.4,61.5,138.3,138,138.6c76.6,0.3,138.6-61.5,138.9-138.1
	C368.4,77.2,306.5,15.1,229.9,15C153.4,14.8,91.4,76.7,91.3,153.3z M30.4,368.2c4.9-0.2,8.7-1.8,11.8-5c19-19,38-38.1,57.1-57
	c1.8-1.8,1.3-2.5-0.2-4c-6.1-6-12.3-12-18.2-18.3c-1.8-1.9-2.7-1.5-4.2,0.1c-14.3,14.4-28.7,28.8-43,43.1
	c-4.8,4.8-9.8,9.6-14.5,14.6c-4.6,4.9-5.5,10.8-2.8,17C19.2,364.9,24.2,367.8,30.4,368.2z" />
	<path d="M229.8,273.9c-60.6,0.1-111.3-44.4-119.6-104.7C101.4,104.8,146.8,44,210.9,34.3
	c58.9-8.9,114.1,24.8,133.2,81.1c1.7,5.2,0.2,9.4-3.9,10.9c-4.5,1.6-8.3-0.6-10.2-6c-13.3-36.7-38.5-60.5-76.5-69.7
	c-58.9-14.3-118.3,25.8-127.8,85.6c-9.1,57,27.9,110,84.3,121c51.1,9.9,102.3-19.6,119.4-68.8c0.4-1.2,0.8-2.4,1.3-3.5
	c1.8-4,5.7-5.7,9.5-4.3c3.7,1.4,5.6,5.4,4.4,9.5c-5.1,16.1-13.3,30.5-24.5,43.2C296.8,259.4,264.6,273.9,229.8,273.9z" />
	<path d="M176.5,182.8c0.2-7.5,2.2-13,6.4-17.5c3.1-3.4,6.4-6.7,9.8-9.8c1.8-1.6,1.6-2.6-0.1-4.1
	c-2.9-2.7-5.7-5.6-8.5-8.4c-10.1-10.4-10.2-25.7-0.2-35.5c9.8-9.7,24.9-9.6,35.2,0.4c3,2.9,5.9,5.7,8.7,8.8c1.5,1.6,2.4,1.5,3.8,0
	c2.8-3,5.7-5.9,8.7-8.8c10.3-9.9,25.5-10,35.2-0.3c9.8,9.7,9.8,24.9-0.1,35.2c-2.9,3.1-5.9,6.1-9,9c-1.5,1.4-1.4,2.2,0,3.5
	c3,2.8,5.9,5.7,8.8,8.7c10.1,10.4,10.2,25.7,0.3,35.5c-9.9,9.8-25.1,9.5-35.5-0.6c-2.9-2.8-5.7-5.5-8.4-8.5
	c-1.5-1.6-2.4-1.4-3.8,0.1c-3.2,3.4-6.3,6.7-9.8,9.7c-8,6.9-17.1,8.5-26.7,4.2C181.5,200,176.9,192,176.5,182.8z M200.6,115.2
	c-3.5,0.2-6.6,2-8.3,5.8c-1.8,4.1-1,7.8,2.1,11c5,5.1,10,10,15,15.1c4.4,4.4,4.4,8.2,0,12.6c-4.7,4.8-9.5,9.5-14.3,14.3
	c-4.6,4.6-4.9,10.5-0.9,14.6c4.1,4.2,10.1,4,14.9-0.7c4.8-4.7,9.5-9.5,14.3-14.2c4.4-4.4,8.1-4.4,12.6,0c4.8,4.7,9.5,9.5,14.3,14.3
	c4.6,4.6,10.5,4.9,14.6,0.9c4.2-4.1,4-10.1-0.7-14.9c-4.8-4.9-9.7-9.7-14.5-14.6c-4-4-4-8,0-12.1c4.8-4.9,9.7-9.7,14.5-14.6
	c4.6-4.7,4.9-10.5,0.9-14.6c-4.1-4.2-10.1-4-14.9,0.7c-4.8,4.7-9.5,9.5-14.3,14.3c-4.4,4.3-8.2,4.3-12.6,0
	c-4.9-4.8-9.7-9.7-14.5-14.5C206.7,116.5,204.3,115.2,200.6,115.2z" />
	<path d="M342.8,145.9c4,0,7.4,3.4,7.4,7.3c0.1,4.2-3.4,7.6-7.5,7.6c-4.2,0-7.5-3.5-7.4-7.7
	C335.4,149.2,338.8,145.9,342.8,145.9z" />
</svg>