<?xml version="1.0" encoding="iso-8859-1"?>
<!-- Generator: Adobe Illustrator 19.0.0, SVG Export Plug-In . SVG Version: 6.00 Build 0)  -->
<svg version="1.1" id="Capa_1" xmlns="http://www.w3.org/2000/svg" xmlns:xlink="http://www.w3.org/1999/xlink" x="0px" y="0px"
	 viewBox="0 0 512 512" style="enable-background:new 0 0 512 512;" xml:space="preserve">
<g>
	<g>
		<path d="M17.069,225.93C15.21,224.07,12.63,223,10,223s-5.21,1.07-7.07,2.93C1.069,227.79,0,230.37,0,233s1.069,5.21,2.93,7.07
			S7.37,243,10,243s5.21-1.07,7.069-2.93C18.93,238.21,20,235.63,20,233S18.93,227.79,17.069,225.93z"/>
	</g>
</g>
<g>
	<g>
		<path d="M502.907,121.9L432.168,21.25C422.817,7.944,407.524,0,391.261,0h-94.928h-80.666h-94.928
			c-16.264,0-31.557,7.944-40.907,21.25L9.093,121.899C3.145,130.363,0,140.305,0,150.65V190c0,5.523,4.478,10,10,10s10-4.477,10-10
			v-39.35c0-0.89,0.05-1.772,0.126-2.65H172v108c0,3.572,1.905,6.874,4.999,8.66c1.548,0.893,3.274,1.34,5.001,1.34
			c1.726,0,3.452-0.446,4.999-1.339l69.467-40.095l68.484,40.065c3.092,1.809,6.917,1.826,10.024,0.043
			c3.108-1.783,5.025-5.092,5.025-8.675V148h151.874c0.077,0.878,0.126,1.761,0.126,2.65V462c0,16.542-13.458,30-30,30H50
			c-16.542,0-30-13.458-30-30V272c0-5.523-4.478-10-10-10s-10,4.477-10,10v190c0,27.57,22.43,50,50,50h412c27.57,0,50-22.43,50-50
			V150.65C512,140.305,508.855,130.363,502.907,121.9z M223.377,20h65.246l28.406,108H194.971L223.377,20z M174.29,128H29.251
			l66.944-95.25c5.61-7.983,14.786-12.75,24.544-12.75h81.958L174.29,128z M320,238.564l-58.45-34.195
			c-3.103-1.815-6.938-1.825-10.049-0.03L192,238.682V148h128V238.564z M337.71,128L309.303,20h81.958
			c9.758,0,18.933,4.766,24.544,12.75L482.749,128H337.71z"/>
	</g>
</g>
<g>
	<g>
		<path d="M127.321,301.666c-40.429,0-73.32,32.892-73.32,73.321v4.485c0,4.077,2.475,7.745,6.254,9.272
			c3.777,1.525,8.107,0.607,10.939-2.326c5.889-6.098,13.775-9.456,22.207-9.456c9.331,0,18.072,4.207,23.92,11.363v40.705
			c-0.001,4.671-3.8,8.47-8.468,8.47c-4.67,0-8.469-3.799-8.469-8.469c0-5.523-4.478-10-10-10c-5.522,0-10,4.477-10,10
			c0,15.698,12.771,28.469,28.469,28.469s28.468-12.771,28.468-28.469v-40.705c5.848-7.156,14.59-11.364,23.921-11.364
			c8.432,0,16.318,3.358,22.207,9.456c2.831,2.933,7.16,3.852,10.939,2.326c3.779-1.527,6.254-5.195,6.254-9.272v-4.485
			C200.642,334.558,167.75,301.666,127.321,301.666z M161.241,356.963c-12.674,0-24.695,4.696-33.921,12.947
			c-9.225-8.251-21.247-12.947-33.92-12.947c-5.979,0-11.789,1.021-17.241,2.984c6.508-22.102,26.98-38.28,51.162-38.28
			c24.181,0,44.653,16.178,51.161,38.28C173.03,357.985,167.219,356.963,161.241,356.963z"/>
	</g>
</g>
<g>
	<g>
		<path d="M389.899,440.93c-1.859-1.86-4.439-2.93-7.069-2.93c-2.641,0-5.21,1.07-7.08,2.93c-1.86,1.86-2.92,4.44-2.92,7.07
			s1.06,5.21,2.92,7.07c1.87,1.86,4.439,2.93,7.08,2.93c2.63,0,5.199-1.07,7.069-2.93c1.86-1.86,2.92-4.44,2.92-7.07
			S391.759,442.79,389.899,440.93z"/>
	</g>
</g>
<g>
	<g>
		<path d="M340.36,438h-84.412c-5.522,0-10,4.477-10,10s4.478,10,10,10h84.412c5.522,0,10-4.477,10-10S345.882,438,340.36,438z"/>
	</g>
</g>
<g>
	<g>
		<path d="M447.914,390H256.012c-5.522,0-10,4.477-10,10s4.478,10,10,10h191.902c5.523,0,10-4.477,10-10S453.436,390,447.914,390z"
			/>
	</g>
</g>
<g>
	<g>
		<path d="M447.835,342H255.933c-5.522,0-10,4.477-10,10s4.478,10,10,10h191.902c5.522,0,10-4.477,10-10S453.357,342,447.835,342z"
			/>
	</g>
</g>
<g>
</g>
<g>
</g>
<g>
</g>
<g>
</g>
<g>
</g>
<g>
</g>
<g>
</g>
<g>
</g>
<g>
</g>
<g>
</g>
<g>
</g>
<g>
</g>
<g>
</g>
<g>
</g>
<g>
</g>
</svg>
