<?xml version="1.0" encoding="utf-8"?>
<!-- Generator: Adobe Illustrator 19.0.0, SVG Export Plug-In . SVG Version: 6.00 Build 0)  -->
<svg version="1.1" id="Payment_Icons" xmlns="http://www.w3.org/2000/svg" xmlns:xlink="http://www.w3.org/1999/xlink" x="0px"
	 y="0px" viewBox="-460 269 38 24" style="enable-background:new -460 269 38 24;" xml:space="preserve">
<style type="text/css">
	.st0{fill:#FFFFFF;}
	.st1{fill:#F7F7F7;}
	.st2{fill:#253B80;}
	.st3{fill:#179BD7;}
</style>
<title>paypal-color</title>
<g>
	<path class="st0" d="M-455,269.5h28c2.5,0,4.5,2,4.5,4.5v14c0,2.5-2,4.5-4.5,4.5h-28c-2.5,0-4.5-2-4.5-4.5v-14
		C-459.5,271.5-457.5,269.5-455,269.5z"/>
	<path class="st1" d="M-427,270c2.2,0,4,1.8,4,4v14c0,2.2-1.8,4-4,4h-28c-2.2,0-4-1.8-4-4v-14c0-2.2,1.8-4,4-4H-427 M-427,269h-28
		c-2.8,0-5,2.2-5,5v14c0,2.8,2.2,5,5,5h28c2.8,0,5-2.2,5-5v-14C-422,271.2-424.2,269-427,269z"/>
	<path class="st2" d="M-449.6,278c-0.4-0.4-1-0.6-1.5-0.5h-2c-0.1,0-0.3,0.1-0.3,0.3l-0.9,5.3c0,0.1,0.1,0.2,0.2,0.2c0,0,0,0,0,0h1
		c0.1,0,0.2-0.1,0.3-0.2l0.2-1.4c0-0.1,0.1-0.3,0.3-0.3h0.6c1.2,0.1,2.2-0.7,2.3-1.9c0,0,0-0.1,0-0.1
		C-449.2,278.9-449.3,278.4-449.6,278z M-450.9,279.4c-0.1,0.7-0.7,0.7-1.2,0.7h-0.3l0.2-1.4c0-0.1,0.1-0.1,0.2-0.1h0.1
		c0.4,0,0.7,0,0.9,0.2C-450.8,279-450.8,279.2-450.9,279.4z"/>
	<path class="st2" d="M-444.9,279.4h-1c-0.1,0-0.2,0.1-0.2,0.1v0.3l-0.1-0.1c-0.3-0.3-0.7-0.5-1.2-0.4c-1.1,0-2.1,0.9-2.2,2
		c-0.1,0.5,0,1.1,0.4,1.5c0.3,0.4,0.8,0.5,1.3,0.5c0.5,0,1-0.2,1.4-0.6v0.3c0,0.1,0.1,0.2,0.2,0.2h0.9c0.1,0,0.3-0.1,0.3-0.2
		l0.5-3.4c0-0.1,0-0.2-0.1-0.2C-444.8,279.3-444.9,279.3-444.9,279.4z M-447.4,282.3c-0.2,0-0.5-0.1-0.7-0.3
		c-0.1-0.2-0.2-0.5-0.2-0.7c0.1-0.6,0.5-1,1.1-1c0.3,0,0.5,0.1,0.7,0.3c0.2,0.2,0.2,0.5,0.2,0.7
		C-446.4,281.8-446.8,282.3-447.4,282.3z"/>
	<path class="st2" d="M-439.6,279.4h-1c-0.1,0-0.2,0-0.2,0.1l-1.4,2l-0.6-1.9c0-0.1-0.2-0.2-0.3-0.2h-1c-0.1,0-0.2,0.1-0.2,0.2
		c0,0,0,0,0,0.1l1.1,3.2l-1,1.5c-0.1,0.1,0,0.2,0,0.2c0,0,0.1,0,0.1,0h1c0.1,0,0.2,0,0.2-0.1l3.3-4.8
		C-439.5,279.5-439.5,279.4-439.6,279.4C-439.6,279.4-439.6,279.4-439.6,279.4z"/>
	<path class="st3" d="M-434.9,278c-0.4-0.4-1-0.6-1.5-0.5h-2.1c-0.1,0-0.3,0.1-0.3,0.3l-0.8,5.3c0,0.1,0.1,0.2,0.2,0.2c0,0,0,0,0,0
		h1.1c0.1,0,0.2-0.1,0.2-0.2l0.2-1.5c0-0.1,0.1-0.2,0.3-0.3h0.7c1.2,0.1,2.2-0.7,2.3-1.9c0,0,0-0.1,0-0.1
		C-434.5,278.8-434.6,278.4-434.9,278z M-436.1,279.4c-0.1,0.7-0.7,0.7-1.2,0.7h-0.3l0.2-1.4c0-0.1,0.1-0.2,0.2-0.2c0,0,0,0,0,0h0.1
		c0.4,0,0.7,0,0.9,0.2C-436.1,279-436.1,279.2-436.1,279.4L-436.1,279.4z"/>
	<path class="st3" d="M-430.2,279.4h-1c-0.1,0-0.2,0.1-0.2,0.1v0.3l-0.1-0.1c-0.3-0.3-0.7-0.5-1.2-0.4c-1.1,0-2.1,0.9-2.2,2
		c-0.1,0.5,0,1.1,0.4,1.5c0.3,0.4,0.8,0.5,1.2,0.5c0.5,0,1-0.2,1.4-0.6v0.3c0,0.1,0.1,0.2,0.1,0.2c0,0,0,0,0,0h0.9
		c0.1,0,0.3-0.1,0.3-0.2l0.5-3.4C-430,279.5-430,279.4-430.2,279.4C-430.2,279.4-430.2,279.4-430.2,279.4z M-432.7,282.3
		c-0.3,0-0.5-0.1-0.7-0.3c-0.1-0.2-0.2-0.5-0.1-0.7c0.1-0.6,0.5-1,1.1-1c0.4,0,0.8,0.3,0.9,0.7c0,0.1,0,0.2,0,0.3
		C-431.6,281.8-432.1,282.3-432.7,282.3z"/>
	<path class="st3" d="M-427.9,277.4h-1c-0.1,0-0.2,0.1-0.2,0.1l-0.8,5.4c0,0.1,0,0.2,0.1,0.2c0,0,0,0,0,0h0.9c0.1,0,0.3-0.1,0.3-0.2
		l0.8-5.3C-427.7,277.5-427.8,277.5-427.9,277.4C-427.9,277.4-427.9,277.4-427.9,277.4z"/>
</g>
</svg>
