<svg xmlns="http://www.w3.org/2000/svg" viewBox="0 0 89.751 67.316">
  <g id="Group_261" data-name="Group 261" transform="translate(0 -48.114)">
    <g id="Double_Arrow_Left_Right" data-name="Double Arrow Left/Right" transform="translate(0 48.114)">
      <path id="Path_116" data-name="Path 116" d="M9.545,73.411H53.28a2.833,2.833,0,0,0,0-5.666H9.545L24.13,52.95a2.849,2.849,0,0,0,0-4.005,2.782,2.782,0,0,0-3.966,0L.814,68.575a2.873,2.873,0,0,0,0,4.008L20.167,92.214a2.784,2.784,0,0,0,3.966,0,2.849,2.849,0,0,0,0-4.005Z" transform="translate(0 -48.114)" />
      <path id="Path_117" data-name="Path 117" d="M199.664,164.6l-19.353-19.631a2.784,2.784,0,0,0-3.966,0,2.849,2.849,0,0,0,0,4.005l14.585,14.8H147.2a2.833,2.833,0,0,0,0,5.666h43.735l-14.585,14.8a2.849,2.849,0,0,0,0,4.005,2.782,2.782,0,0,0,3.966,0l19.35-19.631A2.868,2.868,0,0,0,199.664,164.6Z" transform="translate(-110.727 -121.756)"/>
    </g>
  </g>
</svg>
