<?xml version="1.0" encoding="utf-8"?>
<!-- Generator: Adobe Illustrator 19.0.0, SVG Export Plug-In . SVG Version: 6.00 Build 0)  -->
<svg version="1.1" baseProfile="tiny" id="Layer_1" xmlns="http://www.w3.org/2000/svg" xmlns:xlink="http://www.w3.org/1999/xlink"
	 x="0px" y="0px" viewBox="0 32.2 175 118" xml:space="preserve">
<g id="XMLID_1_">
	<g id="XMLID_19_">
		<g id="XMLID_20_">
			<path id="XMLID_21_" d="M6.4,113.3H0.7 M0.7,119.1L0.7,119.1l-0.1,6.4c0,3.3,2.7,6,6,6h15.8c0,0.1,0,0.1,0,0.2
				c0,10.2,8.3,18.5,18.5,18.5s18.5-8.3,18.5-18.5c0-0.1,0-0.1,0-0.2h65.9c0,0.1,0,0.1,0,0.2c0,10.2,8.3,18.5,18.5,18.5
				s18.5-8.3,18.5-18.5c0-0.1,0-0.1,0-0.2h9.6c1.6,0,2.9-1.3,2.9-2.9V97.5c0-7.7-5.7-14.1-13.1-15.2l-4.8-19.4
				c1.3-0.3,2.3-1.5,2.3-2.9v-3.1c0-6.8-5.5-12.3-12.3-12.3h-22v-6.4c0-3.3-2.7-6-6-6H6.7c-3.3,0-6,2.7-6,6v85.1
				c0,1.6,1.3,2.9,2.9,2.9s2.9-1.3,2.9-2.9V38.2c0-0.1,0.1-0.2,0.2-0.2H119c0.1,0,0.2,0.1,0.2,0.2v53c0,1.6,1.3,2.9,2.9,2.9
				s2.9-1.3,2.9-2.9v-3.3h34.5l0,0l0,0c4.2,0,7.9,2.8,9.1,6.6h-9.1c-1.6,0-2.9,1.3-2.9,2.9v6.2c0,5.1,4.1,9.2,9.2,9.2h3.3v12.9h-7.6
				c-2.5-7.3-9.4-12.5-17.5-12.5s-15,5.2-17.5,12.5h-1.4V89.8c0-1.6-1.3-2.9-2.9-2.9s-2.9,1.3-2.9,2.9v35.9H58.5
				c-2.5-7.3-9.4-12.5-17.5-12.5s-15,5.2-17.5,12.5H6.7c-0.1,0-0.2-0.1-0.2-0.2v-6.4H6.4 M125.1,50.5h22c3.5,0,6.4,2.9,6.4,6.4v0.2
				H125L125.1,50.5L125.1,50.5z M125.1,82.1V63h26l4.8,19.1H125.1L125.1,82.1z M41,144.5c-7,0-12.7-5.7-12.7-12.7S34,119.1,41,119.1
				s12.7,5.7,12.7,12.7S48,144.5,41,144.5z M144,144.5c-7,0-12.7-5.7-12.7-12.7s5.7-12.7,12.7-12.7s12.7,5.7,12.7,12.7
				S151,144.5,144,144.5z M169.1,107h-3.3c-1.8,0-3.3-1.5-3.3-3.3v-3.3h6.6V107L169.1,107z"/>
		</g>
	</g>
	<g id="XMLID_16_">
		<g id="XMLID_17_">
			<path id="XMLID_6_" d="M41,125.8c-3.3,0-6,2.7-6,6s2.7,6,6,6s6-2.7,6-6C47.1,128.5,44.4,125.8,41,125.8z"/>
		</g>
	</g>
	<g id="XMLID_13_">
		<g id="XMLID_14_">
			<path id="XMLID_5_" d="M144,125.8c-3.3,0-6,2.7-6,6s2.7,6,6,6s6-2.7,6-6S147.3,125.8,144,125.8z"/>
		</g>
	</g>
</g>
</svg>
