<svg xmlns="http://www.w3.org/2000/svg" viewBox="0 0 88.999 88.998">
  <g id="Sort" transform="translate(0 -0.002)">
    <g id="Group_259" data-name="Group 259" transform="translate(0 0.002)">
      <g id="Group_258" data-name="Group 258" transform="translate(0)">
        <path id="Path_104" data-name="Path 104" d="M202.286,26.132h50.3a1.935,1.935,0,1,0,0-3.869h-50.3a1.935,1.935,0,0,0,0,3.869Z" transform="translate(-165.525 -18.393)" />
        <path id="Path_105" data-name="Path 105" d="M252.589,200.349h-50.3a1.935,1.935,0,1,0,0,3.869h50.3a1.935,1.935,0,1,0,0-3.869Z" transform="translate(-165.525 -165.523)"/>
        <path id="Path_106" data-name="Path 106" d="M202.286,115.176h34.826a1.935,1.935,0,0,0,0-3.869H202.286a1.935,1.935,0,1,0,0,3.869Z" transform="translate(-165.525 -91.959)" />
        <path id="Path_107" data-name="Path 107" d="M237.111,467.48H202.286a1.935,1.935,0,1,0,0,3.869h34.826a1.935,1.935,0,1,0,0-3.869Z" transform="translate(-165.525 -386.22)" />
        <path id="Path_108" data-name="Path 108" d="M252.589,378.436h-50.3a1.935,1.935,0,0,0,0,3.869h50.3a1.935,1.935,0,1,0,0-3.869Z" transform="translate(-165.525 -312.654)"/>
        <path id="Path_109" data-name="Path 109" d="M202.286,293.263h34.826a1.935,1.935,0,0,0,0-3.869H202.286a1.935,1.935,0,0,0,0,3.869Z" transform="translate(-165.525 -239.09)" />
        <path id="Path_110" data-name="Path 110" d="M23.784,14.913a1.934,1.934,0,1,0,2.736-2.736L14.912.569A1.934,1.934,0,0,0,13.673.005h0a1.9,1.9,0,0,0-.364.012h0a1.929,1.929,0,0,0-1.031.46c-.037.033-.072.066-.106.1l-11.6,11.6A1.934,1.934,0,0,0,3.3,14.913l8.306-8.306V82.395L3.3,74.089A1.934,1.934,0,0,0,.569,76.825l11.6,11.6c.035.035.07.068.106.1a1.926,1.926,0,0,0,1.025.46h0a1.991,1.991,0,0,0,.242.015c.043,0,.085,0,.128,0h0a1.924,1.924,0,0,0,1.238-.563L26.52,76.825a1.934,1.934,0,0,0-2.736-2.736l-8.306,8.306V6.607Z" transform="translate(0 -0.002)"/>
      </g>
    </g>
  </g>
</svg>
