<svg version="1.1" xmlns="http://www.w3.org/2000/svg" viewBox="0 0 29 29" fill="currentColor">
	<path d="M29,14.9c-2,0.8-3.9,1.7-5.7,2.7C22.1,18.2,21,19,20,19.9c-0.9,1-1.7,2.1-2.4,3.3
		c-1,1.9-1.9,3.8-2.7,5.8h-0.8c-0.8-2-1.7-3.9-2.7-5.8C10.7,22,10,20.9,9,19.9c-1-0.9-2.1-1.7-3.3-2.4c-1.9-1-3.8-1.9-5.7-2.7v-0.8
		c2-0.8,3.9-1.7,5.7-2.7C6.9,10.8,8.1,10,9,9.1c0.9-1,1.7-2.1,2.3-3.3c1-1.9,1.9-3.8,2.7-5.8h0.8c0.8,2,1.7,3.9,2.7,5.8
		C18.3,7,19,8.1,20,9.1c1,0.9,2.1,1.7,3.3,2.4c1.9,1,3.8,1.9,5.8,2.7V14.9z"/>
</svg>