<svg version="1.1" xmlns="http://www.w3.org/2000/svg" viewBox="-462.5 267.5 31.6 25.7">
	<path d="M-430.9,270.5c-1.2,0.5-2.4,0.9-3.7,1c1.3-0.8,2.4-2.1,2.9-3.6
		c-1.3,0.8-2.6,1.3-4.1,1.6c-1.2-1.3-2.9-2.1-4.7-2.1c-3.6,0-6.5,2.9-6.5,6.5c0,0.5,0.1,1,0.2,1.5c-5.4-0.3-10.2-2.9-13.4-6.8
		c-0.6,1-0.9,2.1-0.9,3.3c0,2.3,1.1,4.2,2.9,5.4c-1.1,0-2.1-0.3-2.9-0.8v0.1c0,3.1,2.2,5.8,5.2,6.4c-0.5,0.1-1.1,0.2-1.7,0.2
		c-0.4,0-0.8,0-1.2-0.1c0.8,2.6,3.2,4.5,6.1,4.5c-2.2,1.7-5,2.8-8.1,2.8c-0.5,0-1,0-1.5-0.1c2.9,1.9,6.3,2.9,9.9,2.9
		c11.9,0,18.5-9.9,18.5-18.5c0-0.3,0-0.6,0-0.8C-432.9,273-431.8,271.9-430.9,270.5z"/>
</svg>