<svg version="1.1" xmlns="http://www.w3.org/2000/svg" viewBox="-462 269.5 30.5 23.1">
	<path d="M-431.5,279.9v2.3c0,2.4-0.2,4.9-0.2,5l0,0c0,0.2-0.3,2.4-1.3,3.5
		c-1.2,1.3-2.6,1.5-3.2,1.5c-0.1,0-0.1,0-0.2,0l0,0c-4,0.3-10.1,0.3-10.2,0.3h0h0c-0.3,0-7.6-0.1-9.9-0.3l-0.1,0
		c-0.1,0-0.2,0-0.3,0c-0.8-0.1-2.2-0.3-3.4-1.5c-1-1.1-1.3-3.3-1.3-3.5l0,0c0-0.1-0.2-2.5-0.2-5v-2.3c0-2.4,0.2-4.9,0.2-5l0,0
		c0-0.2,0.3-2.4,1.3-3.5c1.2-1.4,2.6-1.5,3.3-1.6c0.1,0,0.1,0,0.1,0l0,0c4.1-0.3,10.2-0.3,10.2-0.3h0l0,0c0.1,0,6.1,0,10.2,0.3
		l0.1,0c0,0,0.1,0,0.1,0c0.7,0.1,2.1,0.2,3.3,1.5c1.1,1.1,1.3,3.3,1.3,3.5l0,0C-431.7,275-431.5,277.5-431.5,279.9z M-441.4,280.8
		c0-0.4-0.2-0.9-0.6-1.1l-6.7-3.7c-0.4-0.2-0.8-0.2-1.2,0c-0.4,0.2-0.6,0.6-0.6,1.1v7.3c0,0.4,0.2,0.8,0.6,1.1
		c0.2,0.1,0.4,0.2,0.6,0.2c0.2,0,0.4-0.1,0.6-0.1l6.7-3.6C-441.7,281.6-441.4,281.2-441.4,280.8z"/>
</svg>