<svg version="1.1" xmlns="http://www.w3.org/2000/svg" viewBox="-293.2 95.9 369.1 369.4">
	<path d="M-287.2,327.2c5.3,20.5,14,39.8,25.5,56.9l55.6-56.9H-287.2z"/>
	<path d="M75.9,280.5c0-24-4.7-46.9-13-67.9l-91.1,233.9C33.4,416.6,75.9,353.6,75.9,280.5z"/>
	<path d="M-133.3,328.3l-92.7,94.9c31.9,26.3,72.7,42,117.3,42c4.9,0,9.8-0.4,14.6-0.7l52.7-136.1H-133.3z"/>
	<path d="M-8.2,125.8c-29-18.8-63.4-29.9-100.6-29.9c-100.5,0-182.1,80.3-184.5,180.3l139.8,0L-8.2,125.8z"/>
	<path d="M-22.5,276.1L15.8,178l-97.7,98.1H-22.5z"/>
</svg>