<?xml version="1.0" encoding="utf-8"?>
<!-- Generator: Adobe Illustrator 16.0.0, SVG Export Plug-In . SVG Version: 6.00 Build 0)  -->
<!DOCTYPE svg PUBLIC "-//W3C//DTD SVG 1.1//EN" "http://www.w3.org/Graphics/SVG/1.1/DTD/svg11.dtd">
<svg version="1.1" id="Layer_1" xmlns="http://www.w3.org/2000/svg" xmlns:xlink="http://www.w3.org/1999/xlink" x="0px" y="0px"
	 width="518.26px" height="124.546px" viewBox="0 0 518.26 124.546" enable-background="new 0 0 518.26 124.546"
	 xml:space="preserve">
<g>
	<path id="XMLID_68_" fill="#01539C" d="M122.088,112.253l-1.639-7.373l-5.735,7.373H122.088z M122.908,115.123h-10.242
		l-3.277,4.096h-5.325l14.748-18.025h5.735l4.098,18.025h-4.917L122.908,115.123z"/>
	<polygon id="XMLID_67_" fill="#01539C" points="131.921,119.218 137.248,101.193 142.573,101.193 136.837,119.218 	"/>
	<polygon id="XMLID_66_" fill="#01539C" points="161.418,119.218 156.913,119.218 155.682,110.615 149.948,119.218 145.441,119.218 
		142.983,106.109 147.49,106.109 148.718,114.712 154.864,106.109 159.371,106.109 159.78,114.712 165.925,106.109 170.841,106.109 
			"/>
	<g id="XMLID_7_">
		<path id="XMLID_63_" fill="#01539C" d="M181.904,113.074c-0.41,0-0.819,0-1.229,0c-2.458,0.41-4.097,0.41-4.916,0.818
			c-0.41,0.41-0.818,0.818-0.818,1.229s0.408,0.82,0.818,1.229c0.409,0.41,0.819,0.41,1.64,0.41c0.819,0,1.639,0,2.048-0.41
			c0.818-0.408,1.229-0.408,1.64-0.818c0.409-0.408,0.819-1.229,0.819-2.047L181.904,113.074L181.904,113.074z M176.987,109.796
			l-4.916-0.41c0.41-1.229,1.639-2.049,2.868-2.867c1.229-0.818,3.276-0.818,5.734-0.818s4.098,0.408,5.326,0.818
			c1.229,0.818,1.639,1.639,1.639,2.459c0,0.408,0,0.818,0,1.229c0,0.408-0.409,1.639-1.229,3.688
			c-0.409,1.639-0.819,2.457-0.819,3.275c0,0.41,0,1.23,0.41,2.049h-4.916c0-0.408-0.41-0.818-0.41-1.639
			c-0.818,0.41-1.639,0.82-2.458,1.23c-0.818,0.408-2.049,0.408-2.868,0.408c-1.639,0-2.866-0.408-3.688-1.229
			c-0.819-0.82-1.639-1.641-1.639-2.869s0.409-2.049,1.639-2.867c1.229-0.82,3.278-1.229,5.736-1.229s4.097-0.41,4.916-0.41
			c0.409-0.41,0.409-0.82,0.409-1.23s-0.409-0.818-0.818-0.818c-0.41,0-0.819-0.41-1.641-0.41c-0.818,0-1.639,0-2.048,0.41
			C177.805,108.976,177.397,109.386,176.987,109.796"/>
		<path id="XMLID_62_" fill="#01539C" d="M191.736,106.109h4.916l1.229,6.555c0.409,1.639,0.409,2.867,0.409,3.688
			c0.82-1.229,1.64-2.867,2.868-4.098l4.507-5.734h5.326l-11.473,13.93c-0.818,1.229-1.639,2.049-2.049,2.459
			c-0.409,0.408-1.229,0.818-2.048,1.229s-1.639,0.41-2.868,0.41c-1.229,0-2.458,0-3.688-0.41l0.41-2.459c0.408,0,1.229,0,1.639,0
			c1.639,0,2.868-0.818,3.688-2.457L191.736,106.109z"/>
		<path id="XMLID_61_" fill="#01539C" d="M209.352,115.531l4.916-0.408c0.409,0.818,0.819,1.229,1.64,1.639
			c0.818,0.408,1.639,0.408,2.458,0.408c1.229,0,2.049,0,2.868-0.408c0.408-0.41,0.818-0.41,0.818-0.818c0-0.41,0-0.41-0.41-0.82
			c-0.408,0-0.818-0.41-2.048-0.818c-2.868-0.818-4.917-1.229-5.735-1.639c-1.229-0.82-1.64-1.639-1.64-2.459
			c0-1.229,0.41-2.049,1.64-2.867c1.639-1.229,3.688-1.639,6.965-1.639c2.458,0,4.097,0.408,5.326,0.818
			c1.229,0.818,2.049,1.639,2.458,2.457l-4.508,0.41c-0.408-0.41-0.818-0.818-1.229-1.229c-1.229,0-2.049,0-2.868,0
			c-1.229,0-1.639,0-2.458,0.41c-0.409,0.408-0.819,0.408-0.819,0.818s0.41,0.41,0.819,0.82c0.41,0,1.229,0.408,2.868,0.818
			c2.458,0.408,4.097,0.818,4.916,1.639c1.229,0.82,1.639,1.639,1.639,2.459c0,1.229-0.818,2.457-2.049,3.277
			c-1.639,0.818-3.687,1.229-6.145,1.229c-2.868,0-4.917-0.41-6.146-1.229C210.992,117.58,209.761,116.761,209.352,115.531"/>
	</g>
	<polygon id="XMLID_59_" fill="#01539C" points="254.829,119.218 249.912,119.218 248.682,104.06 244.996,119.218 240.08,119.218 
		245.406,101.193 252.78,101.193 253.598,113.484 262.613,101.193 269.987,101.193 264.661,119.218 259.745,119.218 265.071,104.06 
			"/>
	<g id="XMLID_6_">
		<path id="XMLID_56_" fill="#01539C" d="M285.145,111.025c0-0.818-0.409-1.639-1.229-2.049c-0.41-0.41-1.64-0.818-2.459-0.818
			c-1.229,0-2.048,0.408-2.867,0.818c-0.818,0.41-1.639,1.229-2.049,2.049c-0.409,0.818-0.818,1.639-0.818,2.459
			c0,0.818,0.409,1.639,1.229,2.047c0.819,0.41,1.639,0.818,2.867,0.818s2.459-0.408,3.278-1.229
			C284.326,114.302,285.145,112.664,285.145,111.025 M270.806,113.484c0-2.459,0.818-4.508,2.866-5.736
			c2.05-1.639,4.508-2.049,7.784-2.049c2.868,0,4.917,0.41,6.557,1.639c1.639,1.23,2.458,2.459,2.458,4.098
			c0,2.049-0.819,4.098-2.868,5.326c-2.048,1.639-4.507,2.457-7.784,2.457c-1.639,0-3.277-0.408-4.506-0.818
			c-1.229-0.408-2.459-1.229-2.868-2.049C271.215,115.531,270.806,114.712,270.806,113.484"/>
		<path id="XMLID_55_" fill="#01539C" d="M301.124,119.218h-4.507l-3.688-13.109h4.916l1.229,5.736
			c0.409,1.639,0.409,2.457,0.819,3.277c0,0,0.408-0.82,1.229-1.639c0.819-0.82,1.229-1.641,1.229-1.641l4.507-5.324h5.326
			L301.124,119.218z"/>
	</g>
	<path id="XMLID_51_" fill="#01539C" d="M317.51,101.193h4.917l-0.818,2.867h-4.917L317.51,101.193z M315.872,106.109h4.917
		l-4.098,13.109h-4.916L315.872,106.109z"/>
	<g id="XMLID_5_">
		<path id="XMLID_50_" fill="#01539C" d="M326.114,106.109h4.917l-0.41,1.639c1.229-0.82,2.458-1.229,3.277-1.639
			c0.818-0.41,2.049-0.41,3.277-0.41c1.64,0,2.867,0.41,3.688,0.82c0.819,0.818,1.229,1.229,1.229,2.457c0,0.41,0,1.229-0.409,2.459
			l-2.049,7.375h-4.917l2.05-7.375c0.41-1.23,0.41-1.641,0.41-2.049c0-0.41,0-0.82-0.41-1.229c-1.229,0-1.64,0-2.458,0
			c-0.819,0-1.64,0.408-2.458,0.818c-0.819,0.41-1.64,0.818-2.05,1.639c-0.408,0.41-0.818,1.639-1.229,3.277l-1.64,5.326h-4.916
			L326.114,106.109z"/>
		<path id="XMLID_47_" fill="#01539C" d="M349.466,113.484c0,0.818,0.41,1.639,0.819,2.457c0.819,0.408,1.639,0.408,2.868,0.408
			c0.819,0,1.639-0.408,2.458-0.818c0.819-0.408,1.639-1.229,2.049-2.047c0.409-0.82,0.819-1.641,0.819-2.459
			s-0.41-1.639-1.229-2.049c-0.818-0.41-1.639-0.818-2.458-0.818c-0.818,0-1.639,0.408-2.458,0.818
			c-0.818,0.41-1.229,1.229-2.049,2.457C349.876,112.253,349.466,112.664,349.466,113.484 M343.731,119.628l5.326,0.41
			c0,0.41,0,0.818,0.408,0.818c0,0,0.41,0.41,0.819,0.41c0.41,0,0.819,0,1.639,0c1.229,0,2.05,0,2.459-0.41
			c0.409-0.408,0.819-0.408,1.229-1.229c0-0.41,0.41-0.82,0.819-2.049v-0.41c-1.64,0.82-3.688,1.639-5.326,1.639
			c-1.639,0-3.277-0.408-4.506-1.229c-1.229-0.818-1.641-2.049-1.641-4.096c0-1.641,0.41-2.869,1.229-4.098
			c0.818-1.229,2.049-2.049,3.276-2.867c1.64-0.82,2.868-0.82,4.508-0.82c1.229,0,2.458,0.41,3.276,0.82
			c1.229,0.408,1.64,1.229,2.458,2.047l0.819-2.457h4.917l-3.278,11.061c-0.409,1.641-0.818,2.869-1.229,3.689
			c-0.41,0.818-0.819,1.229-1.229,1.639c-0.409,0.41-1.229,0.818-1.639,1.229c-0.819,0.408-1.64,0.408-2.458,0.818
			c-0.819,0-2.049,0-3.277,0c-2.458,0-4.507-0.41-6.146-0.818c-2.05-0.818-2.458-2.049-2.458-3.277
			C343.731,120.039,343.731,120.039,343.731,119.628"/>
	</g>
	<polygon id="XMLID_45_" fill="#01539C" points="375.687,119.218 381.422,101.193 399.449,101.193 398.219,104.06 385.519,104.06 
		384.291,108.566 396.991,108.566 395.76,111.433 383.471,111.433 381.013,119.218 	"/>
	<g id="XMLID_3_">
		<path id="XMLID_42_" fill="#01539C" d="M412.968,111.025c0-0.818-0.408-1.639-1.229-2.049s-1.639-0.818-2.868-0.818
			c-1.229,0-2.049,0.408-2.868,0.818c-0.818,0.41-1.639,1.229-2.048,2.049c-0.41,0.818-0.819,1.639-0.819,2.459
			c0,0.818,0.409,1.639,1.229,2.047c0.819,0.41,1.64,0.818,2.868,0.818s2.458-0.408,3.276-1.229
			C412.149,114.302,412.968,112.664,412.968,111.025 M398.629,113.484c0-2.459,0.819-4.508,2.868-5.736
			c2.048-1.639,4.506-2.049,7.784-2.049c2.867,0,4.916,0.41,6.555,1.639c1.64,1.23,2.458,2.459,2.458,4.098
			c0,2.049-0.818,4.098-2.868,5.326c-2.048,1.639-4.506,2.457-7.782,2.457c-1.641,0-3.278-0.408-4.507-0.818
			c-1.229-0.408-2.458-1.229-2.868-2.049C399.04,115.531,398.629,114.712,398.629,113.484"/>
		<path id="XMLID_41_" fill="#01539C" d="M423.621,106.109h4.507l-0.818,2.457c1.639-2.047,3.687-2.867,5.734-2.867
			c0.819,0,1.64,0,2.458,0.41l-2.048,2.867c-0.41,0-0.82,0-1.64,0c-0.82,0-1.64,0.41-2.458,0.818c-0.819,0.41-1.64,1.23-2.048,1.641
			c-0.41,0.818-0.819,2.049-1.64,3.688l-1.229,4.096h-4.916L423.621,106.109z"/>
	</g>
	<polygon id="XMLID_39_" fill="#01539C" points="453.528,119.218 448.612,119.218 447.792,110.615 442.056,119.218 437.14,119.218 
		435.092,106.109 439.598,106.109 440.828,114.712 446.563,106.109 451.07,106.109 451.889,114.712 457.625,106.109 
		462.542,106.109 	"/>
	<g id="XMLID_4_">
		<path id="XMLID_36_" fill="#01539C" d="M473.603,113.074c-0.41,0-0.819,0-1.229,0c-2.458,0.41-4.097,0.41-4.916,0.818
			c-0.41,0.41-0.818,0.818-0.818,1.229s0.408,0.82,0.818,1.229c0.409,0.41,0.819,0.41,1.64,0.41c0.819,0,1.639,0,2.049-0.41
			c0.818-0.408,1.229-0.408,1.639-0.818c0.409-0.408,0.819-1.229,0.819-2.047L473.603,113.074L473.603,113.074z M469.096,109.796
			l-4.916-0.41c0.408-1.229,1.639-2.049,2.866-2.867c1.229-0.818,3.278-0.818,5.736-0.818s4.097,0.408,5.326,0.818
			c1.229,0.818,1.639,1.639,1.639,2.459c0,0.408,0,0.818,0,1.229c0,0.408-0.41,1.639-1.229,3.688
			c-0.409,1.639-0.819,2.457-0.819,3.275c0,0.41,0,1.23,0.41,2.049h-4.917c0-0.408-0.409-0.818-0.409-1.639
			c-0.819,0.41-1.639,0.82-2.458,1.23c-0.819,0.408-2.049,0.408-2.868,0.408c-1.639,0-2.868-0.408-3.688-1.229
			s-1.64-1.641-1.64-2.869s0.41-2.049,1.64-2.867c1.229-0.82,3.276-1.229,5.735-1.229c2.458,0,4.098-0.41,4.916-0.41
			c0.409-0.41,0.409-0.82,0.409-1.23s-0.409-0.818-0.818-0.818c-0.409-0.41-1.229-0.41-2.049-0.41c-0.818,0-1.639,0-2.049,0.41
			C469.506,108.976,469.096,109.386,469.096,109.796"/>
		<path id="XMLID_35_" fill="#01539C" d="M485.484,106.109h4.507l-0.819,2.457c1.64-2.047,3.688-2.867,5.735-2.867
			c0.819,0,1.639,0,2.458,0.41l-2.049,2.867c-0.409,0-0.819,0-1.639,0c-0.82,0-1.64,0.41-2.458,0.818
			c-0.819,0.41-1.64,1.23-2.049,1.641c-0.409,0.818-0.818,2.049-1.639,3.688l-1.229,4.096h-4.916L485.484,106.109z"/>
		<path id="XMLID_32_" fill="#01539C" d="M501.461,113.892c0,0.82,0.41,1.641,0.819,2.051c0.819,0.408,1.639,0.818,2.458,0.818
			c0.82,0,1.64-0.41,2.459-0.818c0.819-0.41,1.229-1.23,2.048-2.051c0.41-0.818,0.819-1.639,0.819-2.457s-0.409-1.639-1.229-2.459
			c-0.818-0.408-1.639-0.818-2.458-0.818c-1.64,0-2.868,0.41-3.688,1.639C501.869,111.027,501.461,112.253,501.461,113.892
			 M512.933,119.218h-4.916l0.408-1.229c-0.818,0.818-1.639,1.229-2.866,1.229c-0.819,0.41-2.05,0.41-2.868,0.41
			c-2.049,0-3.688-0.41-4.507-1.229c-1.229-0.818-1.64-2.457-1.64-4.098c0-2.049,0.819-4.096,2.458-5.734
			c1.64-1.641,4.098-2.459,6.557-2.459c2.458,0,4.506,0.818,5.734,2.049l2.049-6.555h4.916L512.933,119.218z"/>
	</g>
	<path id="XMLID_28_" fill="#01539C" d="M120.86,38.51l8.604-21.714L107.75,38.51H120.86z M92.18,38.51L129.463,0h20.074
		L119.22,79.478h-13.109l10.65-29.088H96.278l-28.27,29.088H51.622l28.679-29.496h-80.3l5.326-11.473L92.18,38.51L92.18,38.51z"/>
	<g id="XMLID_2_">
		<path id="XMLID_27_" fill="#01539C" d="M168.793,65.55c-3.688,2.867-8.194,4.506-13.11,4.506
			c-8.192,0.41-14.339-4.916-11.472-12.291c3.278-7.783,13.11-13.52,21.305-13.109c4.507,0.41,8.193,2.049,9.424,4.508h14.749
			c0-8.605-7.784-14.75-19.666-15.16c-15.158-0.818-31.955,7.375-38.102,21.715c-5.326,13.109,4.916,24.99,20.074,24.172
			c12.291-0.41,23.763-6.555,31.137-15.158L168.793,65.55z"/>
		<path id="XMLID_26_" fill="#01539C" d="M226.559,65.55c-3.688,2.867-8.193,4.506-13.109,4.506
			c-8.194,0.41-14.339-4.916-11.473-12.291c3.277-7.783,13.11-13.52,21.305-13.109c4.507,0.41,8.193,2.049,9.423,4.508h14.749
			c0-8.605-7.784-14.75-19.665-15.16c-15.158-0.818-31.956,7.375-38.102,21.715c-5.325,13.109,4.916,24.99,20.074,24.172
			c12.291-0.41,23.763-6.555,31.138-15.158L226.559,65.55z"/>
		<path id="XMLID_25_" fill="#01539C" d="M255.648,35.232l-10.242,26.631c0,0-5.736,18.025,13.108,18.025
			c6.146,0,11.063-1.639,16.389-4.508l-1.639,3.689h11.881l17.617-43.838h-13.11l-8.604,22.123c0,0-3.688,12.291-15.978,12.291
			c-10.652,0-5.736-10.242-5.736-10.242l9.014-24.172H255.648L255.648,35.232z"/>
		<path id="XMLID_24_" fill="#01539C" d="M310.135,35.232L292.929,79.07h12.699l10.242-24.582c0,0,3.278-10.242,14.749-10.242
			l3.688-10.242c0,0-7.374-0.41-13.521,4.506l1.229-3.277H310.135z"/>
	</g>
	<polygon id="XMLID_22_" fill="#01539C" points="339.224,35.232 322.017,79.07 335.127,79.07 351.924,35.232 	"/>
	<g id="XMLID_1_">
		<path id="XMLID_21_" fill="#01539C" d="M356.431,25.809c-1.229,3.276-4.916,5.735-9.014,5.735c-3.688,0-6.146-2.459-4.917-5.735
			c1.229-3.278,4.917-5.735,9.015-5.735C355.203,20.074,357.25,22.533,356.431,25.809"/>
		<path id="XMLID_18_" fill="#01539C" d="M371.59,68.828c-9.014,0-13.93-5.736-11.472-12.291
			c2.458-6.965,11.881-12.291,20.484-12.291c8.603,0,13.93,5.326,11.881,11.881l-0.819,1.639
			C388.796,63.91,380.194,68.828,371.59,68.828 M406.414,20.893l-6.555,16.388c-3.278-2.457-7.784-3.687-13.521-3.687
			c-20.073,0-32.774,9.423-38.101,22.532c-5.326,12.701,6.555,23.354,20.074,23.354c5.735,0,11.472-1.23,16.388-3.688l-1.229,3.277
			h12.699l22.533-58.587h-12.291v0.41H406.414z"/>
		<path id="XMLID_15_" fill="#01539C" d="M451.889,53.259h-28.27c4.507-5.326,11.881-8.604,18.437-8.193
			c4.507,0.408,7.783,2.049,9.423,4.506C452.709,52.029,451.889,53.259,451.889,53.259 M466.228,49.572
			c0-8.605-7.784-14.75-19.665-15.158c-15.158-0.819-31.956,7.373-38.102,21.713c-5.326,13.109,4.916,24.99,20.074,24.172
			c12.291-0.41,23.763-6.555,31.137-15.158h-14.339c-3.688,2.867-8.193,4.508-13.109,4.508c-6.556,0.408-11.882-3.277-12.291-8.195
			h40.97C465.819,56.947,466.228,49.572,466.228,49.572"/>
		<path id="XMLID_10_" fill="#01539C" d="M469.506,33.184h1.229c0.41,0,0.819,0,1.229-0.41c0,0,0.409-0.409,0.409-0.819v-0.41
			l-0.409-0.409c0,0-0.409,0-0.818,0h-1.229v2.048L469.506,33.184L469.506,33.184z M468.277,36.46v-6.146h2.049
			c0.819,0,1.229,0,1.639,0s0.409,0.41,0.819,0.41c0,0.41,0.409,0.41,0.409,0.819c0,0.408,0,0.818-0.409,1.229
			c-0.41,0.41-0.819,0.41-1.229,0.41c0,0,0.409,0,0.409,0.41c0.409,0.41,0.409,0.818,0.819,1.229l0.819,1.229h-1.229l-0.409-0.819
			c-0.409-0.818-0.818-1.229-0.818-1.229s-0.41,0-0.819,0h-0.41v2.457H468.277L468.277,36.46z M470.735,28.677
			c-0.819,0-1.639,0-2.458,0.41s-1.229,0.818-1.639,1.639c-0.41,0.818-0.819,1.639-0.819,2.458s0.409,1.64,0.819,2.458
			c0.408,0.818,0.818,1.229,1.639,1.639s1.639,0.41,2.458,0.41s1.639,0,2.458-0.41s1.229-0.818,1.639-1.639
			c0.41-0.818,0.41-1.639,0.41-2.458s-0.41-1.64-0.41-2.458c-0.409-0.818-0.818-1.229-1.639-1.639S471.554,28.677,470.735,28.677
			 M470.735,27.858c0.819,0,1.639,0.41,2.868,0.819c0.818,0.41,1.639,1.229,2.048,2.048c0.41,0.819,0.818,1.64,0.818,2.868
			c0,0.818-0.408,2.048-0.818,2.867c-0.409,0.82-1.229,1.64-2.048,2.049c-0.819,0.408-1.64,0.818-2.868,0.818
			c-0.819,0-2.049-0.41-2.868-0.818c-0.819-0.409-1.639-1.229-2.048-2.049c-0.41-0.818-0.819-1.639-0.819-2.867
			c0-0.82,0.409-2.049,0.819-2.868c0.409-0.819,1.229-1.64,2.048-2.048C469.096,27.858,469.916,27.858,470.735,27.858"/>
	</g>
</g>
</svg>
