<svg xmlns="http://www.w3.org/2000/svg" viewBox="0 0 304.963 51.779">
  <g data-name="Accuride logo" style="isolation: isolate">
    <path data-name="Path 6" d="M61.458,27.28,85.339,2.555h12.92L78.8,53.344H70.441l6.906-18.66H64.3L46.076,53.344H35.582L53.988,34.523H2.62L6.07,27.28Zm18.562,0,5.432-13.922L71.593,27.28Z" transform="translate(-2.62 -2.555)"/>
    <path data-name="Path 7" d="M56.04,30.112a14.9,14.9,0,0,1-8.392,3.012c-5.2.184-9.256-3.272-7.324-7.819,2.146-5.049,8.329-8.568,13.614-8.268,2.932.167,5.118,1.29,6.143,3.01l9.346.026c-.092-5.515-4.965-9.374-12.5-9.8-9.734-.553-20.5,4.686-24.4,14.037-3.5,8.4,3.228,15.924,12.807,15.589A27.3,27.3,0,0,0,65.244,30.06Z" transform="translate(51.839 11.872)"/>
    <path data-name="Path 8" d="M68.877,30.112a14.894,14.894,0,0,1-8.4,3.012c-5.2.184-9.253-3.272-7.321-7.819,2.148-5.049,8.332-8.568,13.617-8.268,2.929.167,5.118,1.29,6.143,3.01l9.343.026c-.089-5.515-4.962-9.374-12.5-9.8-9.734-.553-20.5,4.686-24.4,14.037C41.865,32.7,48.6,40.23,58.175,39.9A27.3,27.3,0,0,0,78.084,30.06Z" transform="translate(75.976 11.872)"/>
    <path data-name="Path 9" d="M63.994,10.437,57.506,27.478s-3.672,11.58,8.464,11.58a20.344,20.344,0,0,0,10.578-3.007l-.973,2.474h7.572l11.03-28.089H85.819l-5.59,14.144s-2.454,7.793-10.138,7.793c-6.906,0-3.565-6.457-3.565-6.457l5.82-15.48Z" transform="translate(99.584 12.263)"/>
    <path data-name="Path 10" d="M78.718,10.948,67.693,39.036h8.13L82.257,23.2a10.158,10.158,0,0,1,9.573-6.463l2.46-6.569a14.385,14.385,0,0,0-8.528,2.805l.775-2.025Z" transform="translate(119.717 11.752)"/>
    <g data-name="Group 12" transform="translate(206.126 13.009)">
      <path data-name="Path 11" d="M85.1,10.437,74.191,38.525h8.263L93.226,10.437Z" transform="translate(-74.191 -0.746)"/>
      <path data-name="Path 12" d="M87.739,10.646c-.694,1.97-3.246,3.557-5.711,3.554s-3.891-1.6-3.2-3.568,3.246-3.563,5.7-3.56S88.436,8.676,87.739,10.646Z" transform="translate(-65.801 -7.072)"/>
    </g>
    <path data-name="Path 13" d="M117.748,7.188l-4.164,10.621a14.491,14.491,0,0,0-8.577-2.488c-12.876,0-21.038,6.045-24.454,14.478-3.341,8.24,4.118,15.143,12.853,15.143a24.5,24.5,0,0,0,10.515-2.465l-.844,2.157h8.263L125.875,7.188Zm-22.2,30.851c-5.694,0-9-3.548-7.387-7.914s7.548-7.9,13.236-7.9c5.553,0,8.813,3.361,7.491,7.566l-.4,1.031C106.536,34.865,100.934,38.041,95.546,38.039Z" transform="translate(142.362 6.155)"/>
    <path data-name="Path 14" d="M130.943,20.054c-.089-5.509-4.968-9.369-12.5-9.8-9.732-.553-20.5,4.686-24.4,14.031-3.5,8.392,3.228,15.924,12.807,15.592a27.286,27.286,0,0,0,19.907-9.835l-9.2.055a14.927,14.927,0,0,1-8.4,3.015c-4.208.141-7.667-2.1-7.808-5.374h26.323C130.678,24.731,130.943,20.054,130.943,20.054ZM121.667,22.4h-18.02a15.11,15.11,0,0,1,11.811-5.371c2.926.164,5.115,1.284,6.143,3.007A2.107,2.107,0,0,1,121.667,22.4Z" transform="translate(167.494 11.848)"/>
    <path data-name="Path 15" d="M109.59,8.758a3.636,3.636,0,0,1,1.734.455,3.243,3.243,0,0,1,1.316,1.3,3.552,3.552,0,0,1,.012,3.519,3.338,3.338,0,0,1-1.307,1.308,3.56,3.56,0,0,1-3.514,0,3.262,3.262,0,0,1-1.3-1.308,3.5,3.5,0,0,1-.469-1.751,3.558,3.558,0,0,1,.475-1.768,3.243,3.243,0,0,1,1.316-1.3A3.655,3.655,0,0,1,109.59,8.758Zm0,.585a2.949,2.949,0,0,0-1.446.38,2.784,2.784,0,0,0-1.1,1.089,2.921,2.921,0,0,0-.006,2.932,2.763,2.763,0,0,0,1.092,1.092,2.957,2.957,0,0,0,1.463.386,2.989,2.989,0,0,0,1.463-.386,2.749,2.749,0,0,0,1.086-1.092,2.939,2.939,0,0,0-.006-2.932,2.678,2.678,0,0,0-1.1-1.089A2.977,2.977,0,0,0,109.59,9.343Zm-1.552,4.9v-3.8h1.3a3.219,3.219,0,0,1,.973.1.973.973,0,0,1,.478.366.985.985,0,0,1,.176.559,1.019,1.019,0,0,1-.294.726,1.2,1.2,0,0,1-.792.348.966.966,0,0,1,.32.2,4.134,4.134,0,0,1,.562.752l.467.749h-.74l-.34-.6a3.533,3.533,0,0,0-.645-.887.824.824,0,0,0-.5-.13h-.366v1.619Zm.608-2.14h.76a1.248,1.248,0,0,0,.74-.161.533.533,0,0,0,.193-.423.5.5,0,0,0-.1-.305.564.564,0,0,0-.265-.2,1.916,1.916,0,0,0-.625-.066h-.708Z" transform="translate(191.851 9.107)"/>
  </g>
</svg>
